{"accessors" : [{"bufferView" : 0, "byteOffset" : 0, "componentType" : 5123, "count" : 1920, "type" : "SCALAR", "max" : [1919], "min" : [0]}, {"bufferView" : 1, "byteOffset" : 0, "componentType" : 5126, "count" : 1920, "type" : "VEC3", "max" : [207.9999542236328, 24, 10], "min" : [181.90016174316406, 0, 0], "name" : "POSITION"}, {"bufferView" : 1, "byteOffset" : 12, "componentType" : 5126, "count" : 1920, "type" : "VEC3", "max" : [1.0000044107437134, 1.0000044107437134, 1.0000044107437134], "min" : [-0.9999749064445496, -1.0000044107437134, -1.0000044107437134], "name" : "NORMAL"}, {"bufferView" : 1, "byteOffset" : 24, "componentType" : 5126, "count" : 1920, "type" : "VEC2", "max" : [207.9999542236328, 24], "min" : [0.10142724215984344, -9], "name" : "TEXCOORD_0"}, {"bufferView" : 0, "byteOffset" : 3840, "componentType" : 5123, "count" : 1224, "type" : "SCALAR", "max" : [1223], "min" : [0]}, {"bufferView" : 2, "byteOffset" : 0, "componentType" : 5126, "count" : 1224, "type" : "VEC3", "max" : [177.50282287597656, 23.661663055419922, 10.050000190734863], "min" : [159.03846740722656, 0, 0], "name" : "POSITION"}, {"bufferView" : 2, "byteOffset" : 12, "componentType" : 5126, "count" : 1224, "type" : "VEC3", "max" : [1.0000044107437134, 1.0000044107437134, 1.0000044107437134], "min" : [-1.0000044107437134, -1.0000044107437134, -1.0000044107437134], "name" : "NORMAL"}, {"bufferView" : 2, "byteOffset" : 24, "componentType" : 5126, "count" : 1224, "type" : "VEC2", "max" : [177.50282287597656, 23.661663055419922], "min" : [0.14279791712760925, -9.050000190734863], "name" : "TEXCOORD_0"}, {"bufferView" : 0, "byteOffset" : 6288, "componentType" : 5123, "count" : 624, "type" : "SCALAR", "max" : [623], "min" : [0]}, {"bufferView" : 3, "byteOffset" : 0, "componentType" : 5126, "count" : 624, "type" : "VEC3", "max" : [152.17396545410156, 23.323326110839844, 10.100000381469727], "min" : [148.1045684814453, 0, 0], "name" : "POSITION"}, {"bufferView" : 3, "byteOffset" : 12, "componentType" : 5126, "count" : 624, "type" : "VEC3", "max" : [1.0000044107437134, 1.0000044107437134, 1.0000044107437134], "min" : [-1.0000044107437134, -1.0000044107437134, -1.0000044107437134], "name" : "NORMAL"}, {"bufferView" : 3, "byteOffset" : 24, "componentType" : 5126, "count" : 624, "type" : "VEC2", "max" : [152.17396545410156, 23.323326110839844], "min" : [0.14279791712760925, -9.100000381469727], "name" : "TEXCOORD_0"}, {"bufferView" : 0, "byteOffset" : 7536, "componentType" : 5123, "count" : 2760, "type" : "SCALAR", "max" : [2759], "min" : [0]}, {"bufferView" : 4, "byteOffset" : 0, "componentType" : 5126, "count" : 2760, "type" : "VEC3", "max" : [141.67893981933594, 24, 10.149999618530273], "min" : [126.5002212524414, 0, 0], "name" : "POSITION"}, {"bufferView" : 4, "byteOffset" : 12, "componentType" : 5126, "count" : 2760, "type" : "VEC3", "max" : [1.0000007152557373, 0.9997287392616272, 1.0000044107437134], "min" : [-0.9983357787132263, -0.999670684337616, -1.0000044107437134], "name" : "NORMAL"}, {"bufferView" : 4, "byteOffset" : 24, "componentType" : 5126, "count" : 2760, "type" : "VEC2", "max" : [141.67893981933594, 24], "min" : [2.017704725265503, -9.149999618530273], "name" : "TEXCOORD_0"}, {"bufferView" : 0, "byteOffset" : 13056, "componentType" : 5123, "count" : 1032, "type" : "SCALAR", "max" : [1031], "min" : [0]}, {"bufferView" : 5, "byteOffset" : 0, "componentType" : 5126, "count" : 1032, "type" : "VEC3", "max" : [97.14466857910156, 24, 10.199999809265137], "min" : [77.53125, 0, 0], "name" : "POSITION"}, {"bufferView" : 5, "byteOffset" : 12, "componentType" : 5126, "count" : 1032, "type" : "VEC3", "max" : [1.0000044107437134, 1.0000044107437134, 1.0000044107437134], "min" : [-1.0000044107437134, -1.0000044107437134, -1.0000044107437134], "name" : "NORMAL"}, {"bufferView" : 5, "byteOffset" : 24, "componentType" : 5126, "count" : 1032, "type" : "VEC2", "max" : [97.14466857910156, 24], "min" : [0, -9.199999809265137], "name" : "TEXCOORD_0"}, {"bufferView" : 0, "byteOffset" : 15120, "componentType" : 5123, "count" : 1914, "type" : "SCALAR", "max" : [1913], "min" : [0]}, {"bufferView" : 6, "byteOffset" : 0, "componentType" : 5126, "count" : 1914, "type" : "VEC3", "max" : [71.82328033447266, 24, 10.25], "min" : [45.723480224609375, 0, 0], "name" : "POSITION"}, {"bufferView" : 6, "byteOffset" : 12, "componentType" : 5126, "count" : 1914, "type" : "VEC3", "max" : [1.0000044107437134, 1.0000044107437134, 1.0000044107437134], "min" : [-0.9999748468399048, -1.0000044107437134, -1.0000044107437134], "name" : "NORMAL"}, {"bufferView" : 6, "byteOffset" : 24, "componentType" : 5126, "count" : 1914, "type" : "VEC2", "max" : [71.82328033447266, 24], "min" : [0.10142724215984344, -9.25], "name" : "TEXCOORD_0"}, {"bufferView" : 0, "byteOffset" : 18948, "componentType" : 5123, "count" : 1260, "type" : "SCALAR", "max" : [1259], "min" : [0]}, {"bufferView" : 7, "byteOffset" : 0, "componentType" : 5126, "count" : 1260, "type" : "VEC3", "max" : [43.61418533325195, 23.323326110839844, 10.300000190734863], "min" : [23.856142044067383, 0, 0], "name" : "POSITION"}, {"bufferView" : 7, "byteOffset" : 12, "componentType" : 5126, "count" : 1260, "type" : "VEC3", "max" : [1.0000044107437134, 1.0000044107437134, 1.0000044107437134], "min" : [-1.0000044107437134, -1.0000044107437134, -1.0000044107437134], "name" : "NORMAL"}, {"bufferView" : 7, "byteOffset" : 24, "componentType" : 5126, "count" : 1260, "type" : "VEC2", "max" : [43.61418533325195, 23.323326110839844], "min" : [0.12888196110725403, -9.300000190734863], "name" : "TEXCOORD_0"}, {"bufferView" : 0, "byteOffset" : 21468, "componentType" : 5123, "count" : 2388, "type" : "SCALAR", "max" : [2387], "min" : [0]}, {"bufferView" : 8, "byteOffset" : 0, "componentType" : 5126, "count" : 2388, "type" : "VEC3", "max" : [20.425508499145508, 23.96616554260254, 10.350000381469727], "min" : [0, 0, 0], "name" : "POSITION"}, {"bufferView" : 8, "byteOffset" : 12, "componentType" : 5126, "count" : 2388, "type" : "VEC3", "max" : [1.0000044107437134, 1.0000044107437134, 1.0000044107437134], "min" : [-1.0000044107437134, -1.0000044107437134, -1.0000044107437134], "name" : "NORMAL"}, {"bufferView" : 8, "byteOffset" : 24, "componentType" : 5126, "count" : 2388, "type" : "VEC2", "max" : [23.96616554260254, 23.96616554260254], "min" : [0, -9.350000381469727], "name" : "TEXCOORD_0"}, {"bufferView" : 0, "byteOffset" : 26244, "componentType" : 5123, "count" : 36, "type" : "SCALAR", "max" : [35], "min" : [0]}, {"bufferView" : 9, "byteOffset" : 0, "componentType" : 5126, "count" : 36, "type" : "VEC3", "max" : [114.75, 20, 10.399999618530273], "min" : [109.75, 15, 0], "name" : "POSITION"}, {"bufferView" : 9, "byteOffset" : 12, "componentType" : 5126, "count" : 36, "type" : "VEC3", "max" : [0.9924793243408203, 0.9925409555435181, 1.0000044107437134], "min" : [-0.9925363063812256, -0.9925612211227417, -1.0000044107437134], "name" : "NORMAL"}, {"bufferView" : 9, "byteOffset" : 24, "componentType" : 5126, "count" : 36, "type" : "VEC2", "max" : [114.75, 20], "min" : [15, -9.399999618530273], "name" : "TEXCOORD_0"}, {"bufferView" : 0, "byteOffset" : 26316, "componentType" : 5123, "count" : 72, "type" : "SCALAR", "max" : [71], "min" : [0]}, {"bufferView" : 10, "byteOffset" : 0, "componentType" : 5126, "count" : 72, "type" : "VEC3", "max" : [123.28939056396484, 23.649999618530273, 10.449999809265137], "min" : [101, 0, 0], "name" : "POSITION"}, {"bufferView" : 10, "byteOffset" : 12, "componentType" : 5126, "count" : 72, "type" : "VEC3", "max" : [0.9309942722320557, 1.0000044107437134, 1.0000044107437134], "min" : [-0.9308525323867798, -1.0000014305114746, -1.0000044107437134], "name" : "NORMAL"}, {"bufferView" : 10, "byteOffset" : 24, "componentType" : 5126, "count" : 72, "type" : "VEC2", "max" : [123.28939056396484, 23.649999618530273], "min" : [0, -9.449999809265137], "name" : "TEXCOORD_0"}], "asset" : {"generator" : "Aspose.3D 22.6", "version" : "2.0"}, "buffers" : [{"uri" : "data:application/octet-stream;base64,", "byteLength" : 449864}], "bufferViews" : [{"buffer" : 0, "byteOffset" : 0, "byteLength" : 26460, "target" : 34963}, {"buffer" : 0, "byteOffset" : 26464, "byteLength" : 61440, "byteStride" : 32, "target" : 34962}, {"buffer" : 0, "byteOffset" : 87908, "byteLength" : 39168, "byteStride" : 32, "target" : 34962}, {"buffer" : 0, "byteOffset" : 127080, "byteLength" : 19968, "byteStride" : 32, "target" : 34962}, {"buffer" : 0, "byteOffset" : 147052, "byteLength" : 88320, "byteStride" : 32, "target" : 34962}, {"buffer" : 0, "byteOffset" : 235376, "byteLength" : 33024, "byteStride" : 32, "target" : 34962}, {"buffer" : 0, "byteOffset" : 268404, "byteLength" : 61248, "byteStride" : 32, "target" : 34962}, {"buffer" : 0, "byteOffset" : 329656, "byteLength" : 40320, "byteStride" : 32, "target" : 34962}, {"buffer" : 0, "byteOffset" : 369980, "byteLength" : 76416, "byteStride" : 32, "target" : 34962}, {"buffer" : 0, "byteOffset" : 446400, "byteLength" : 1152, "byteStride" : 32, "target" : 34962}, {"buffer" : 0, "byteOffset" : 447556, "byteLength" : 2304, "byteStride" : 32, "target" : 34962}], "materials" : [{"name" : "Material_0", "pbrMetallicRoughness" : {"baseColorFactor" : [1, 1, 1, 1], "metallicFactor" : 0, "roughnessFactor" : 1}, "emissiveFactor" : [0, 0, 0], "alphaMode" : "OPAQUE", "doubleSided" : true}, {"name" : "Material_1", "pbrMetallicRoughness" : {"baseColorFactor" : [1, 1, 1, 1], "metallicFactor" : 0, "roughnessFactor" : 1}, "emissiveFactor" : [0, 0, 0], "alphaMode" : "OPAQUE", "doubleSided" : true}, {"name" : "Material_2", "pbrMetallicRoughness" : {"baseColorFactor" : [1, 1, 1, 1], "metallicFactor" : 0, "roughnessFactor" : 1}, "emissiveFactor" : [0, 0, 0], "alphaMode" : "OPAQUE", "doubleSided" : true}, {"name" : "Material_3", "pbrMetallicRoughness" : {"baseColorFactor" : [1, 1, 1, 1], "metallicFactor" : 0, "roughnessFactor" : 1}, "emissiveFactor" : [0, 0, 0], "alphaMode" : "OPAQUE", "doubleSided" : true}, {"name" : "Material_4", "pbrMetallicRoughness" : {"baseColorFactor" : [1, 1, 1, 1], "metallicFactor" : 0, "roughnessFactor" : 1}, "emissiveFactor" : [0, 0, 0], "alphaMode" : "OPAQUE", "doubleSided" : true}, {"name" : "Material_5", "pbrMetallicRoughness" : {"baseColorFactor" : [1, 1, 1, 1], "metallicFactor" : 0, "roughnessFactor" : 1}, "emissiveFactor" : [0, 0, 0], "alphaMode" : "OPAQUE", "doubleSided" : true}, {"name" : "Material_6", "pbrMetallicRoughness" : {"baseColorFactor" : [1, 1, 1, 1], "metallicFactor" : 0, "roughnessFactor" : 1}, "emissiveFactor" : [0, 0, 0], "alphaMode" : "OPAQUE", "doubleSided" : true}, {"name" : "Material_7", "pbrMetallicRoughness" : {"baseColorFactor" : [1, 1, 1, 1], "metallicFactor" : 0, "roughnessFactor" : 1}, "emissiveFactor" : [0, 0, 0], "alphaMode" : "OPAQUE", "doubleSided" : true}, {"name" : "Material_8", "pbrMetallicRoughness" : {"baseColorFactor" : [0.8661474585533142, 0.07801521569490433, 0.0009509666124358773, 1], "metallicFactor" : 0, "roughnessFactor" : 1}, "emissiveFactor" : [0, 0, 0], "alphaMode" : "OPAQUE", "doubleSided" : true}, {"name" : "Material_9", "pbrMetallicRoughness" : {"baseColorFactor" : [0.8661474585533142, 0.07801521569490433, 0.0009509666124358773, 1], "metallicFactor" : 0, "roughnessFactor" : 1}, "emissiveFactor" : [0, 0, 0], "alphaMode" : "OPAQUE", "doubleSided" : true}], "meshes" : [{"primitives" : [{"attributes" : {"POSITION" : 1, "NORMAL" : 2, "TEXCOORD_0" : 3}, "indices" : 0, "material" : 0, "mode" : 4}]}, {"primitives" : [{"attributes" : {"POSITION" : 5, "NORMAL" : 6, "TEXCOORD_0" : 7}, "indices" : 4, "material" : 1, "mode" : 4}]}, {"primitives" : [{"attributes" : {"POSITION" : 9, "NORMAL" : 10, "TEXCOORD_0" : 11}, "indices" : 8, "material" : 2, "mode" : 4}]}, {"primitives" : [{"attributes" : {"POSITION" : 13, "NORMAL" : 14, "TEXCOORD_0" : 15}, "indices" : 12, "material" : 3, "mode" : 4}]}, {"primitives" : [{"attributes" : {"POSITION" : 17, "NORMAL" : 18, "TEXCOORD_0" : 19}, "indices" : 16, "material" : 4, "mode" : 4}]}, {"primitives" : [{"attributes" : {"POSITION" : 21, "NORMAL" : 22, "TEXCOORD_0" : 23}, "indices" : 20, "material" : 5, "mode" : 4}]}, {"primitives" : [{"attributes" : {"POSITION" : 25, "NORMAL" : 26, "TEXCOORD_0" : 27}, "indices" : 24, "material" : 6, "mode" : 4}]}, {"primitives" : [{"attributes" : {"POSITION" : 29, "NORMAL" : 30, "TEXCOORD_0" : 31}, "indices" : 28, "material" : 7, "mode" : 4}]}, {"primitives" : [{"attributes" : {"POSITION" : 33, "NORMAL" : 34, "TEXCOORD_0" : 35}, "indices" : 32, "material" : 8, "mode" : 4}]}, {"primitives" : [{"attributes" : {"POSITION" : 37, "NORMAL" : 38, "TEXCOORD_0" : 39}, "indices" : 36, "material" : 9, "mode" : 4}]}], "nodes" : [{"mesh" : 0, "name" : "Mesh_0"}, {"mesh" : 1, "name" : "Mesh_1"}, {"mesh" : 2, "name" : "Mesh_2"}, {"mesh" : 3, "name" : "Mesh_3"}, {"mesh" : 4, "name" : "Mesh_4"}, {"mesh" : 5, "name" : "Mesh_5"}, {"mesh" : 6, "name" : "Mesh_6"}, {"mesh" : 7, "name" : "Mesh_7"}, {"mesh" : 8, "name" : "Mesh_8"}, {"mesh" : 9, "name" : "Mesh_9"}, {"children" : [0, 1, 2, 3, 4, 5, 6, 7, 8, 9], "matrix" : [0.016795056641858395, 0, -0.006997940509859629, 0, -0, -0.018194643780589104, 0, 0, 0.006997940509859629, 0, 0.016795056641858395, 0, -1.6799999475479126, 0.2199997901916504, 0, 1], "name" : "Node_10"}], "scene" : 0, "scenes" : [{"nodes" : [10]}]}